<?xml version="1.0" standalone="no"?>
<!DOCTYPE svg PUBLIC "-//W3C//DTD SVG 20010904//EN"
 "http://www.w3.org/TR/2001/REC-SVG-20010904/DTD/svg10.dtd">
<svg version="1.0" xmlns="http://www.w3.org/2000/svg"
 width="512.000000pt" height="512.000000pt" viewBox="0 0 512.000000 512.000000"
 preserveAspectRatio="xMidYMid meet">

<g transform="translate(0.000000,512.000000) scale(0.100000,-0.100000)"
fill="#000000" stroke="none">
<path d="M1405 4674 c-536 -83 -879 -429 -960 -969 -12 -84 -15 -267 -15
-1144 0 -1132 1 -1146 56 -1339 92 -321 326 -581 629 -697 248 -95 239 -95
1440 -95 687 0 1060 4 1120 11 562 68 936 442 1004 1004 7 60 11 435 11 1125
0 869 -3 1051 -15 1135 -40 265 -133 467 -292 635 -176 186 -391 292 -676 334
-147 22 -2161 22 -2302 0z m2281 -319 c354 -62 566 -255 656 -598 21 -78 22
-107 25 -622 2 -297 3 -575 1 -618 l-3 -77 -49 35 c-137 98 -330 112 -483 35
-39 -20 -215 -164 -540 -443 -486 -418 -512 -438 -623 -467 -64 -17 -177 -15
-246 5 -74 21 -120 48 -208 120 -82 67 -144 100 -229 121 -78 21 -190 14 -267
-15 -31 -12 -238 -143 -474 -301 -231 -154 -424 -276 -428 -272 -5 5 -20 53
-35 108 l-28 99 -3 1064 c-2 926 -1 1075 13 1154 65 377 288 604 660 671 123
22 2134 23 2261 1z"/>
<path d="M1796 3904 c-162 -39 -301 -168 -357 -331 -42 -124 -34 -254 26 -378
86 -181 253 -285 455 -285 202 0 369 104 455 285 96 201 58 420 -102 580 -122
121 -304 171 -477 129z"/>
</g>
</svg>
