<?xml version="1.0" standalone="no"?>
<!DOCTYPE svg PUBLIC "-//W3C//DTD SVG 20010904//EN"
 "http://www.w3.org/TR/2001/REC-SVG-20010904/DTD/svg10.dtd">
<svg version="1.0" xmlns="http://www.w3.org/2000/svg"
 width="512.000000pt" height="512.000000pt" viewBox="0 0 512.000000 512.000000"
 preserveAspectRatio="xMidYMid meet">

<g transform="translate(0.000000,512.000000) scale(0.100000,-0.100000)"
fill="#000000" stroke="none">
<path d="M78 5099 c-23 -12 -46 -35 -58 -59 -19 -38 -20 -58 -20 -552 0 -572
-2 -558 69 -605 l34 -23 2457 0 2457 0 34 23 c71 47 69 33 69 605 0 494 -1
514 -20 552 -13 26 -34 47 -60 60 -39 20 -53 20 -2482 20 -2413 -1 -2443 -1
-2480 -21z"/>
<path d="M84 3176 c-17 -8 -42 -29 -55 -47 l-24 -34 0 -535 0 -535 24 -34 c47
-66 -149 -61 2531 -61 2680 0 2484 -5 2531 61 l24 34 0 535 0 535 -24 34 c-47
66 149 61 -2533 61 -2029 -1 -2448 -3 -2474 -14z"/>
<path d="M69 1237 c-71 -47 -69 -33 -69 -605 0 -494 1 -514 20 -552 13 -26 34
-47 60 -60 39 -20 56 -20 1275 -20 1219 0 1236 0 1275 20 26 13 47 34 60 60
19 38 20 58 20 552 0 572 2 558 -69 605 l-34 23 -1252 0 -1252 0 -34 -23z"/>
<path d="M3940 1249 c-25 -10 -468 -444 -522 -512 -37 -46 -49 -96 -36 -145
14 -53 525 -567 580 -584 79 -24 164 25 187 107 6 22 11 113 11 202 l0 162
429 3 c416 3 430 4 457 24 51 37 69 71 69 127 0 39 -6 61 -24 86 -43 61 -47
61 -510 61 l-419 0 -4 188 c-3 182 -4 190 -28 225 -41 60 -121 83 -190 56z"/>
</g>
</svg>
