<?xml version="1.0" standalone="no"?>
<!DOCTYPE svg PUBLIC "-//W3C//DTD SVG 20010904//EN"
 "http://www.w3.org/TR/2001/REC-SVG-20010904/DTD/svg10.dtd">
<svg version="1.0" xmlns="http://www.w3.org/2000/svg"
 width="512.000000pt" height="512.000000pt" viewBox="0 0 512.000000 512.000000"
 preserveAspectRatio="xMidYMid meet">

<g transform="translate(0.000000,512.000000) scale(0.100000,-0.100000)"
fill="#000000" stroke="none">
<path d="M3685 5114 c-210 -31 -391 -93 -545 -186 -103 -63 -229 -180 -676
-630 -556 -559 -593 -604 -684 -831 l-36 -90 -89 -36 c-99 -40 -176 -82 -275
-150 -82 -56 -1030 -997 -1109 -1101 -327 -427 -358 -1009 -79 -1470 94 -153
275 -335 428 -428 210 -126 427 -186 680 -187 301 0 551 84 790 266 101 77
1044 1026 1102 1109 65 93 107 171 148 273 l36 90 89 36 c230 93 275 130 833
685 562 559 615 621 704 821 84 189 113 326 113 535 -1 303 -84 550 -266 790
-189 249 -460 417 -784 485 -77 16 -318 28 -380 19z m301 -209 c239 -39 441
-141 609 -310 326 -326 414 -809 224 -1232 -72 -161 -116 -212 -618 -716 -262
-263 -507 -502 -546 -532 -38 -29 -105 -72 -147 -95 l-78 -42 -1 154 c-1 84
-7 182 -13 218 l-12 65 497 500 497 500 45 95 c102 212 102 409 0 620 -38 79
-59 108 -132 180 -130 130 -267 193 -451 206 -118 9 -229 -14 -345 -70 -103
-51 -133 -78 -142 -129 -5 -32 -1 -41 31 -73 32 -32 41 -36 74 -32 21 3 60 19
87 36 82 49 149 67 255 67 194 0 355 -97 439 -265 74 -148 77 -294 9 -445 -30
-66 -55 -93 -477 -517 -245 -247 -448 -448 -451 -448 -3 0 -21 30 -39 68 -118
240 -323 450 -566 578 -50 26 -92 49 -95 51 -2 2 73 81 167 176 94 95 176 182
182 194 18 36 12 71 -18 105 -24 27 -36 33 -71 33 -41 0 -44 -3 -268 -230
-189 -192 -233 -242 -265 -301 -53 -102 -78 -207 -78 -329 0 -186 54 -325 187
-481 117 -135 154 -223 154 -362 0 -92 -16 -171 -36 -179 -19 -7 -167 70 -256
134 -226 163 -393 432 -438 705 -14 91 -12 282 5 379 30 172 111 350 221 487
34 42 273 287 531 543 494 491 546 536 707 608 198 89 416 120 622 86z m-1363
-1785 c269 -135 471 -372 561 -657 35 -113 46 -188 46 -324 0 -261 -79 -492
-236 -687 -34 -42 -273 -287 -531 -543 -493 -491 -546 -536 -706 -608 -423
-190 -906 -102 -1232 224 -326 326 -414 809 -224 1232 72 161 116 212 618 716
262 263 508 502 546 532 39 29 105 72 148 95 l77 42 1 -154 c1 -84 7 -182 13
-218 l12 -65 -497 -500 -497 -500 -45 -95 c-102 -212 -102 -409 0 -620 38 -79
59 -108 132 -181 73 -73 102 -94 181 -132 210 -101 408 -102 620 0 l95 45 505
506 c454 455 509 514 543 578 53 102 78 207 78 329 0 186 -54 325 -187 481
-124 144 -159 234 -152 391 5 100 18 153 39 153 6 0 48 -18 92 -40z m-804
-707 c118 -241 323 -451 566 -579 50 -26 92 -49 95 -51 2 -2 -194 -202 -435
-444 -412 -412 -445 -442 -517 -478 -148 -75 -297 -77 -446 -6 -99 47 -172
118 -221 216 -74 146 -77 293 -9 444 30 66 55 93 477 518 245 246 448 447 451
447 3 0 21 -30 39 -67z"/>
<path d="M3122 4105 c-57 -47 -44 -133 23 -161 101 -42 183 80 106 157 -38 38
-87 39 -129 4z"/>
<path d="M1745 4861 c-11 -5 -29 -19 -40 -31 -19 -21 -20 -36 -20 -362 l0
-340 33 -29 c45 -40 84 -39 128 5 l35 35 -3 335 -3 336 -25 25 c-28 27 -74 39
-105 26z"/>
<path d="M822 4345 c-39 -17 -63 -65 -55 -110 4 -22 63 -87 226 -252 121 -122
236 -230 255 -239 48 -22 100 -3 124 46 31 65 22 78 -206 308 -116 118 -222
222 -236 231 -37 27 -71 31 -108 16z"/>
<path d="M345 3431 c-64 -27 -81 -110 -32 -158 l27 -28 336 -3 335 -3 36 36
c31 31 35 40 30 72 -4 20 -18 48 -32 62 l-25 26 -328 2 c-180 1 -336 -2 -347
-6z"/>
<path d="M4104 1856 c-24 -24 -34 -43 -34 -66 0 -23 10 -42 34 -66 l35 -35
335 3 336 3 27 28 c38 38 38 96 0 134 l-27 28 -336 3 -335 3 -35 -35z"/>
<path d="M3790 1372 c-49 -24 -68 -77 -46 -124 9 -19 117 -134 239 -255 237
-235 250 -244 315 -217 39 16 66 70 56 112 -7 26 -395 430 -454 471 -40 28
-72 32 -110 13z"/>
<path d="M3264 1016 l-35 -35 3 -335 3 -336 28 -27 c38 -38 96 -38 134 0 l28
27 3 336 3 335 -35 35 c-24 24 -43 34 -66 34 -23 0 -42 -10 -66 -34z"/>
</g>
</svg>
