<?xml version="1.0" standalone="no"?>
<!DOCTYPE svg PUBLIC "-//W3C//DTD SVG 20010904//EN"
 "http://www.w3.org/TR/2001/REC-SVG-20010904/DTD/svg10.dtd">
<svg version="1.0" xmlns="http://www.w3.org/2000/svg"
 width="512.000000pt" height="512.000000pt" viewBox="0 0 512.000000 512.000000"
 preserveAspectRatio="xMidYMid meet">

<g transform="translate(0.000000,512.000000) scale(0.100000,-0.100000)"
fill="#000000" stroke="none">
<path d="M2300 4625 c-453 -86 -793 -444 -851 -894 -11 -85 -13 -90 -33 -86
-26 6 -928 115 -950 115 -8 0 -31 -14 -50 -30 l-35 -31 -60 31 c-73 36 -104
38 -136 5 -25 -24 -25 -27 -25 -190 l0 -165 -80 -160 -80 -160 0 -379 0 -379
24 -49 c13 -26 88 -194 166 -373 78 -179 147 -330 153 -337 16 -16 915 -343
945 -343 12 0 42 18 66 40 35 32 51 40 82 40 l39 0 114 -191 c63 -104 122
-194 132 -200 10 -5 47 -9 84 -9 63 0 67 2 109 40 34 31 51 40 80 40 l36 0
115 -230 c66 -131 123 -234 134 -240 11 -5 67 -10 126 -10 99 0 107 2 130 25
24 23 25 31 25 134 l0 111 130 65 130 65 241 0 c147 0 248 4 260 10 10 6 35
42 54 81 l35 69 227 -2 226 -3 74 -220 c49 -150 80 -226 94 -237 19 -16 45
-18 211 -18 187 0 189 0 213 25 14 13 25 34 25 47 0 13 -54 167 -120 342 -101
268 -120 328 -120 375 l0 55 200 201 c110 111 200 208 200 217 0 8 18 176 40
373 22 197 40 381 40 410 l0 53 138 33 c186 46 182 42 182 206 0 123 1 132 42
255 l42 128 -47 145 c-34 101 -55 149 -70 160 -26 18 -216 21 -248 5 -11 -6
-53 -78 -94 -160 l-75 -150 -151 0 c-146 0 -151 -1 -174 -25 -23 -22 -25 -32
-25 -120 l0 -95 -95 0 c-88 0 -98 -2 -120 -25 -24 -23 -25 -30 -25 -138 l0
-114 -77 -51 -78 -52 -5 170 -5 171 -141 139 c-127 127 -144 140 -176 140
l-35 0 13 68 c21 107 28 286 15 386 -57 425 -362 766 -781 876 -110 28 -321
36 -430 15z m355 -164 c355 -74 627 -353 691 -711 81 -456 -215 -1082 -771
-1630 l-96 -95 -132 135 c-427 436 -686 891 -737 1292 -38 304 47 566 250 768
210 211 507 301 795 241z m-1688 -921 c535 -65 483 -56 483 -92 0 -49 37 -217
71 -318 91 -275 265 -572 500 -855 111 -133 402 -423 434 -431 14 -3 37 -3 51
0 33 9 323 298 440 439 221 268 355 493 484 815 18 43 49 27 152 -75 l98 -98
0 -198 c0 -197 0 -198 25 -222 21 -22 33 -25 92 -25 l67 0 139 92 c76 50 142
100 148 109 5 10 9 58 9 108 l0 91 95 0 c88 0 98 2 120 25 23 22 25 32 25 120
l0 95 131 0 c72 0 139 5 150 10 11 6 53 78 95 161 70 141 76 150 101 147 24
-3 30 -12 52 -81 l25 -77 -37 -113 c-32 -99 -37 -125 -37 -209 l0 -96 -137
-33 c-182 -45 -183 -46 -184 -181 0 -57 -17 -253 -38 -436 l-37 -333 -202
-202 -202 -203 0 -106 0 -105 100 -267 c55 -146 100 -269 100 -271 0 -3 -32
-5 -72 -3 l-71 3 -74 220 c-49 150 -80 226 -94 238 -19 15 -50 17 -326 17
-191 0 -312 -4 -324 -10 -10 -6 -35 -42 -54 -80 l-35 -70 -225 0 -225 0 -180
-90 c-99 -50 -184 -98 -190 -109 -5 -11 -10 -60 -10 -110 0 -74 -3 -91 -15
-91 -9 0 -57 84 -130 230 -66 131 -123 234 -134 240 -11 5 -67 10 -126 10
l-105 0 -43 -39 -43 -40 -114 190 c-62 105 -121 194 -131 200 -10 5 -65 9
-123 9 -106 0 -106 0 -143 -33 l-38 -33 -399 145 -398 146 -149 340 -149 340
0 338 0 337 80 160 80 160 0 105 0 106 30 -16 c46 -24 76 -19 118 20 23 21 47
35 64 35 14 0 210 -22 435 -50z"/>
<path d="M2346 4144 c-140 -34 -288 -147 -353 -270 -54 -104 -68 -159 -68
-274 0 -158 50 -282 156 -390 253 -257 672 -213 868 90 107 166 118 364 30
547 -112 232 -380 358 -633 297z m298 -182 c91 -42 149 -100 194 -190 35 -72
37 -81 37 -172 0 -91 -2 -100 -37 -172 -45 -91 -103 -147 -196 -191 -61 -29
-76 -32 -162 -32 -86 0 -101 3 -162 32 -93 44 -151 100 -196 191 -35 72 -37
81 -37 171 0 87 3 102 31 162 53 112 128 178 249 222 76 27 195 18 279 -21z"/>
</g>
</svg>
