<?xml version="1.0" standalone="no"?>
<!DOCTYPE svg PUBLIC "-//W3C//DTD SVG 20010904//EN"
 "http://www.w3.org/TR/2001/REC-SVG-20010904/DTD/svg10.dtd">
<svg version="1.0" xmlns="http://www.w3.org/2000/svg"
 width="512.000000pt" height="512.000000pt" viewBox="0 0 512.000000 512.000000"
 preserveAspectRatio="xMidYMid meet">

<g transform="translate(0.000000,512.000000) scale(0.100000,-0.100000)"
fill="#000000" stroke="none">
<path d="M2295 5109 c-660 -63 -1009 -368 -1095 -958 -21 -141 -3 -407 35
-532 4 -10 -11 -26 -44 -48 -60 -38 -102 -89 -139 -168 -25 -53 -27 -68 -27
-178 1 -156 21 -213 109 -301 75 -75 136 -99 231 -92 l63 6 22 -84 c26 -100
114 -281 170 -352 35 -45 45 -52 75 -52 43 0 75 29 75 68 0 16 -23 61 -55 110
-75 115 -131 265 -150 400 l-7 53 51 -50 c100 -97 209 -141 352 -141 148 0
259 47 360 152 55 57 113 165 124 227 l7 41 108 0 108 0 7 -41 c11 -66 73
-176 130 -234 100 -100 211 -145 356 -145 145 0 258 46 355 147 l45 46 -7 -54
c-9 -70 -47 -202 -79 -275 -68 -155 -209 -319 -357 -418 -98 -64 -166 -96
-287 -133 -79 -25 -100 -27 -266 -27 -145 -1 -193 3 -245 17 -113 32 -213 75
-295 127 -88 55 -121 61 -153 27 -58 -61 -9 -118 180 -210 127 -62 127 -62
127 -97 0 -32 -8 -41 -80 -100 l-80 -65 -112 -11 c-142 -15 -252 -44 -364 -99
-48 -24 -89 -43 -89 -42 -1 1 -60 119 -132 263 -72 143 -142 275 -157 293
-113 133 -340 79 -386 -92 -19 -71 -3 -121 111 -344 l107 -211 -71 -7 c-39 -4
-95 -16 -123 -27 -75 -28 -155 -104 -195 -186 l-33 -66 -3 -261 c-2 -169 0
-273 7 -297 14 -44 67 -93 118 -107 21 -6 93 -11 161 -11 l122 0 0 -60 0 -60
-237 0 c-218 0 -241 -2 -270 -20 -53 -32 -58 -51 -58 -205 0 -154 5 -173 58
-205 31 -20 66 -20 1710 -20 1055 0 1685 4 1696 10 10 5 24 22 30 39 10 24 10
34 -3 59 -8 16 -23 32 -31 36 -9 3 -757 6 -1661 6 l-1644 0 0 75 0 75 1990 0
1990 0 0 -75 0 -75 -204 0 c-191 0 -205 -1 -230 -21 -36 -28 -36 -80 0 -108
25 -20 39 -21 263 -21 216 0 239 2 268 20 53 32 58 51 58 207 0 128 -2 144
-21 170 -38 50 -51 53 -305 53 l-236 0 -6 223 c-4 122 -13 253 -21 292 -37
181 -127 353 -254 487 -97 102 -174 159 -286 213 -115 56 -221 85 -363 99
l-112 11 -80 65 c-72 59 -80 68 -81 100 0 35 1 36 88 75 321 145 567 436 652
771 l10 41 68 5 c39 3 84 13 107 26 56 28 132 112 161 179 75 168 31 394 -97
506 l-51 44 24 104 c31 139 33 418 4 548 -36 168 -106 344 -162 410 -31 38
-83 42 -114 11 -29 -29 -25 -58 24 -151 128 -242 159 -538 90 -832 -15 -60
-23 -74 -74 -126 l-58 -58 -12 26 c-6 14 -29 49 -50 76 l-38 50 -15 170 c-17
189 -35 254 -96 344 -95 140 -231 174 -433 107 -165 -55 -206 -61 -408 -61
-201 0 -239 6 -408 61 -109 36 -193 43 -264 24 -57 -16 -129 -71 -169 -131
-61 -90 -79 -155 -96 -344 l-16 -169 -43 -58 c-24 -32 -46 -67 -49 -77 -5 -16
-15 -10 -64 40 -57 57 -60 63 -81 151 -31 128 -38 340 -16 464 83 476 344 710
876 785 143 21 545 18 688 -4 186 -29 374 -92 472 -157 25 -16 57 -30 71 -30
62 0 93 86 47 130 -30 28 -178 103 -266 134 -97 34 -288 72 -432 85 -132 13
-384 12 -515 0z m-182 -988 c163 -55 234 -66 447 -66 213 0 284 11 447 66 132
44 193 38 255 -28 44 -46 67 -113 80 -227 6 -58 9 -108 7 -111 -3 -2 -27 2
-54 10 -64 20 -207 19 -276 -1 -128 -37 -242 -133 -302 -252 -19 -39 -38 -89
-42 -111 l-7 -41 -108 0 -108 0 -7 39 c-9 55 -55 147 -104 208 -53 66 -144
127 -228 153 -79 24 -217 27 -288 5 -27 -8 -51 -12 -54 -10 -11 11 20 220 39
263 23 50 73 109 105 122 40 17 112 10 198 -19z m2 -523 c62 -32 139 -112 167
-175 31 -68 31 -208 0 -276 -28 -62 -104 -142 -167 -175 -45 -24 -61 -27 -155
-27 -94 0 -110 3 -155 27 -63 33 -139 113 -167 175 -30 69 -30 209 0 276 39
86 132 169 222 198 14 5 66 7 115 6 74 -3 99 -8 140 -29z m1200 0 c62 -32 139
-112 167 -175 30 -67 30 -207 0 -276 -28 -62 -104 -142 -167 -175 -45 -24 -61
-27 -155 -27 -94 0 -110 3 -155 27 -63 33 -139 113 -167 175 -31 68 -31 208 0
276 39 85 132 169 222 198 14 5 66 7 115 6 74 -3 99 -8 140 -29z m-1957 -163
c30 -38 40 -103 45 -278 5 -175 4 -177 -63 -177 -154 0 -230 269 -118 421 45
61 104 75 136 34z m2509 -46 c101 -153 23 -409 -126 -409 l-30 0 5 168 c6 184
16 249 46 287 18 24 21 24 49 10 16 -9 41 -34 56 -56z m-2820 -1303 c6 -6 89
-163 183 -349 172 -337 172 -338 124 -290 -48 47 -84 65 -154 77 -35 6 -37 9
-159 255 -119 239 -124 250 -112 279 20 47 84 62 118 28z m1513 -165 c74 0
154 4 178 8 69 14 51 -8 -68 -81 l-110 -68 -110 68 c-119 73 -137 94 -67 81
23 -4 103 -8 177 -8z m-198 -193 c48 -29 88 -57 88 -62 0 -10 -100 -175 -110
-181 -7 -4 -167 163 -183 192 -5 7 15 30 49 57 31 25 58 46 62 46 3 0 45 -24
94 -52z m557 3 l54 -48 -92 -101 c-51 -56 -96 -100 -100 -97 -11 6 -111 171
-111 181 1 10 170 114 185 114 6 -1 34 -22 64 -49z m-784 -257 c152 -170 167
-184 209 -184 48 0 69 21 142 140 37 61 70 110 74 110 4 0 37 -49 74 -110 37
-60 77 -116 89 -125 27 -19 76 -19 102 -1 11 8 81 82 155 165 l135 152 80 -6
c355 -28 643 -257 756 -600 20 -64 23 -93 27 -317 l4 -248 -1025 0 -1024 0 -6
83 c-4 45 -7 102 -7 126 0 36 -31 105 -195 432 -107 213 -195 390 -195 393 0
10 136 74 201 95 70 23 158 38 229 40 l45 0 130 -145z m-917 -110 c56 -23 62
-52 62 -314 0 -180 -3 -238 -15 -266 -24 -58 -49 -63 -311 -61 l-229 2 -3 225
c-2 146 1 239 9 266 21 77 88 138 169 155 59 12 282 7 318 -7z m520 -639 c-9
-8 -130 -66 -133 -63 -1 2 -41 80 -88 173 l-85 170 -4 165 c-3 91 -8 174 -12
185 -4 11 67 -126 159 -304 91 -178 165 -324 163 -326z m-278 -107 c34 -69 62
-114 88 -135 l37 -33 -222 0 -223 0 0 58 0 58 66 11 c77 13 133 47 172 103 15
22 28 39 30 40 1 0 25 -46 52 -102z m318 -104 l-3 -26 -27 22 c-34 26 -35 34
-5 47 27 12 40 -4 35 -43z"/>
<path d="M2470 1094 c-86 -37 -140 -120 -140 -215 0 -76 26 -136 78 -179 154
-128 382 -22 382 177 0 98 -54 181 -142 217 -47 20 -132 20 -178 0z m147 -156
c25 -23 31 -74 13 -107 -16 -31 -65 -46 -100 -31 -37 15 -50 37 -50 81 0 70
85 106 137 57z"/>
<path d="M2390 2623 c-33 -12 -50 -37 -50 -73 0 -47 20 -65 88 -79 110 -23
295 -8 335 27 24 22 23 84 -4 108 -15 13 -31 17 -62 14 -68 -6 -230 -6 -262 1
-16 4 -37 4 -45 2z"/>
</g>
</svg>
